<svg xmlns="http://www.w3.org/2000/svg" viewBox="0 0 320 160" width="320" height="160" role="img" aria-label="">
<rect width="320" height="160" fill="#e8ecf3"/>
<path d="M44 26 h68 l20 20 v88 h-88 z" fill="#ffffff" stroke="#c9d0dc"/>
<path d="M112 26 v20 h20" fill="#d6dce7" stroke="#c9d0dc"/>
<rect x="56" y="58" width="60" height="5" rx="2.5" fill="#c9d0dc"/>
<rect x="56" y="70" width="64" height="5" rx="2.5" fill="#c9d0dc"/>
<rect x="56" y="82" width="52" height="5" rx="2.5" fill="#c9d0dc"/>
<rect x="56" y="94" width="62" height="5" rx="2.5" fill="#c9d0dc"/>
<rect x="56" y="106" width="44" height="5" rx="2.5" fill="#c9d0dc"/>
<line x1="146" y1="80" x2="176" y2="80" stroke="#5b8def" stroke-width="5" stroke-linecap="round"/>
<polygon points="172,68 190,80 172,92" fill="#5b8def"/>
<path d="M200 26 h68 l20 20 v88 h-88 z" fill="#ffffff" stroke="#c9d0dc"/>
<path d="M268 26 v20 h20" fill="#d6dce7" stroke="#c9d0dc"/>
<rect x="212" y="58" width="48" height="5" rx="2.5" fill="#c9d0dc"/>
<rect x="212" y="94" width="12" height="24" rx="2" fill="#3fb3a3"/>
<rect x="230" y="80" width="12" height="38" rx="2" fill="#3fb3a3"/>
<rect x="248" y="88" width="12" height="30" rx="2" fill="#3fb3a3"/>
<rect x="266" y="72" width="12" height="46" rx="2" fill="#e8b04c"/>
</svg>